REM DIRINDEX 1\5,1\2\6,1\2\7,1\3\8,1\3\9,1\4\10,1\4\11,1\4\12
REM DIRNAME cjc026,folder01,folder02,folder03,folder04,folder05,folder06,folder07,folder08,folder09,folder10,folder11
TITLE ""
FILE "EJE_DB3000_5th_6C_30.mp3" MP3
  TRACK 01 AUDIO
    TITLE "0:"
    INDEX 01 00:00:00
  TRACK 02 AUDIO
    TITLE "10:cjc026_11310"
    INDEX 01 00:00:08
  TRACK 03 AUDIO
    TITLE "0:"
    INDEX 01 00:01:27
  TRACK 04 AUDIO
    TITLE "11:cjc026_11311"
    INDEX 01 00:01:62
  TRACK 05 AUDIO
    TITLE "0:"
    INDEX 01 00:03:20
  TRACK 06 AUDIO
    TITLE "12:cjc026_11312"
    INDEX 01 00:03:55
  TRACK 07 AUDIO
    TITLE "0:"
    INDEX 01 00:05:00
  TRACK 08 AUDIO
    TITLE "10:cjc026_11313"
    INDEX 01 00:05:38
  TRACK 09 AUDIO
    TITLE "0:"
    INDEX 01 00:06:57
  TRACK 10 AUDIO
    TITLE "11:cjc026_11314"
    INDEX 01 00:07:17
  TRACK 11 AUDIO
    TITLE "0:"
    INDEX 01 00:08:34
  TRACK 12 AUDIO
    TITLE "12:cjc026_11315"
    INDEX 01 00:08:69
  TRACK 13 AUDIO
    TITLE "0:"
    INDEX 01 00:10:16
  TRACK 14 AUDIO
    TITLE "10:cjc026_11316"
    INDEX 01 00:10:51
  TRACK 15 AUDIO
    TITLE "0:"
    INDEX 01 00:12:04
  TRACK 16 AUDIO
    TITLE "11:cjc026_11317"
    INDEX 01 00:12:45
  TRACK 17 AUDIO
    TITLE "0:"
    INDEX 01 00:14:05
  TRACK 18 AUDIO
    TITLE "12:cjc026_11318"
    INDEX 01 00:14:40
  TRACK 19 AUDIO
    TITLE "0:"
    INDEX 01 00:15:71
  TRACK 20 AUDIO
    TITLE "10:cjc026_11319"
    INDEX 01 00:16:33
  TRACK 21 AUDIO
    TITLE "0:"
    INDEX 01 00:17:50
  TRACK 22 AUDIO
    TITLE "11:cjc026_11320"
    INDEX 01 00:18:13
  TRACK 23 AUDIO
    TITLE "0:"
    INDEX 01 00:19:41
  TRACK 24 AUDIO
    TITLE "12:cjc026_11321"
    INDEX 01 00:20:01
  TRACK 25 AUDIO
    TITLE "0:"
    INDEX 01 00:21:20
  TRACK 26 AUDIO
    TITLE "10:cjc026_11322"
    INDEX 01 00:21:55
  TRACK 27 AUDIO
    TITLE "0:"
    INDEX 01 00:23:11
  TRACK 28 AUDIO
    TITLE "11:cjc026_11323"
    INDEX 01 00:23:43
  TRACK 29 AUDIO
    TITLE "0:"
    INDEX 01 00:25:12
  TRACK 30 AUDIO
    TITLE "12:cjc026_11324"
    INDEX 01 00:25:50
  TRACK 31 AUDIO
    TITLE "0:"
    INDEX 01 00:27:05
  TRACK 32 AUDIO
    TITLE "10:cjc026_11325"
    INDEX 01 00:27:40
  TRACK 33 AUDIO
    TITLE "0:"
    INDEX 01 00:28:70
  TRACK 34 AUDIO
    TITLE "11:cjc026_11326"
    INDEX 01 00:29:33
  TRACK 35 AUDIO
    TITLE "0:"
    INDEX 01 00:30:61
  TRACK 36 AUDIO
    TITLE "12:cjc026_11327"
    INDEX 01 00:31:24
  TRACK 37 AUDIO
    TITLE "0:"
    INDEX 01 00:32:51
  TRACK 38 AUDIO
    TITLE "10:cjc026_11328"
    INDEX 01 00:33:14
  TRACK 39 AUDIO
    TITLE "0:"
    INDEX 01 00:34:33
  TRACK 40 AUDIO
    TITLE "11:cjc026_11329"
    INDEX 01 00:34:69
  TRACK 41 AUDIO
    TITLE "0:"
    INDEX 01 00:36:51
  TRACK 42 AUDIO
    TITLE "12:cjc026_11330"
    INDEX 01 00:37:11
  TRACK 43 AUDIO
    TITLE "0:"
    INDEX 01 00:38:30
  TRACK 44 AUDIO
    TITLE "10:cjc026_11331"
    INDEX 01 00:38:66
  TRACK 45 AUDIO
    TITLE "0:"
    INDEX 01 00:40:15
  TRACK 46 AUDIO
    TITLE "11:cjc026_11332"
    INDEX 01 00:40:53
  TRACK 47 AUDIO
    TITLE "0:"
    INDEX 01 00:42:27
  TRACK 48 AUDIO
    TITLE "12:cjc026_11333"
    INDEX 01 00:42:63
  TRACK 49 AUDIO
    TITLE "0:"
    INDEX 01 00:44:12
  TRACK 50 AUDIO
    TITLE "10:cjc026_11334"
    INDEX 01 00:44:48
  TRACK 51 AUDIO
    TITLE "0:"
    INDEX 01 00:46:00
  TRACK 52 AUDIO
    TITLE "11:cjc026_11335"
    INDEX 01 00:46:38
  TRACK 53 AUDIO
    TITLE "0:"
    INDEX 01 00:48:15
  TRACK 54 AUDIO
    TITLE "12:cjc026_11336"
    INDEX 01 00:48:50
  TRACK 55 AUDIO
    TITLE "0:"
    INDEX 01 00:50:03
  TRACK 56 AUDIO
    TITLE "10:cjc026_11337"
    INDEX 01 00:50:38
  TRACK 57 AUDIO
    TITLE "0:"
    INDEX 01 00:51:65
  TRACK 58 AUDIO
    TITLE "11:cjc026_11338"
    INDEX 01 00:52:25
  TRACK 59 AUDIO
    TITLE "0:"
    INDEX 01 00:53:42
  TRACK 60 AUDIO
    TITLE "12:cjc026_11339"
    INDEX 01 00:54:02
  TRACK 61 AUDIO
    TITLE "0:"
    INDEX 01 00:55:30
  TRACK 62 AUDIO
    TITLE "10:cjc026_11340"
    INDEX 01 00:55:65
  TRACK 63 AUDIO
    TITLE "0:"
    INDEX 01 00:57:15
  TRACK 64 AUDIO
    TITLE "11:cjc026_11341"
    INDEX 01 00:57:50
  TRACK 65 AUDIO
    TITLE "0:"
    INDEX 01 01:00:41
  TRACK 66 AUDIO
    TITLE "12:cjc026_11342"
    INDEX 01 01:01:01
  TRACK 67 AUDIO
    TITLE "0:"
    INDEX 01 01:02:26
  TRACK 68 AUDIO
    TITLE "10:cjc026_11343"
    INDEX 01 01:02:58
  TRACK 69 AUDIO
    TITLE "0:"
    INDEX 01 01:04:16
  TRACK 70 AUDIO
    TITLE "11:cjc026_11344"
    INDEX 01 01:04:54
  TRACK 71 AUDIO
    TITLE "0:"
    INDEX 01 01:06:39
  TRACK 72 AUDIO
    TITLE "12:cjc026_11345"
    INDEX 01 01:06:74
  TRACK 73 AUDIO
    TITLE "0:"
    INDEX 01 01:08:30
  TRACK 74 AUDIO
    TITLE "10:cjc026_11346"
    INDEX 01 01:08:67
  TRACK 75 AUDIO
    TITLE "0:"
    INDEX 01 01:10:15
  TRACK 76 AUDIO
    TITLE "11:cjc026_11347"
    INDEX 01 01:10:55
  TRACK 77 AUDIO
    TITLE "0:"
    INDEX 01 01:12:45
  TRACK 78 AUDIO
    TITLE "12:cjc026_11348"
    INDEX 01 01:13:08
  TRACK 79 AUDIO
    TITLE "0:"
    INDEX 01 01:14:33
  TRACK 80 AUDIO
    TITLE "10:cjc026_11349"
    INDEX 01 01:14:68
  TRACK 81 AUDIO
    TITLE "0:"
    INDEX 01 01:16:21
  TRACK 82 AUDIO
    TITLE "11:cjc026_11350"
    INDEX 01 01:16:59
  TRACK 83 AUDIO
    TITLE "0:"
    INDEX 01 01:18:27
  TRACK 84 AUDIO
    TITLE "12:cjc026_11351"
    INDEX 01 01:18:63
  TRACK 85 AUDIO
    TITLE "0:"
    INDEX 01 01:20:15
